<?xml version="1.0" encoding="UTF-8" standalone="no"?>
<svg
   xmlns:dc="http://purl.org/dc/elements/1.1/"
   xmlns:cc="http://creativecommons.org/ns#"
   xmlns:rdf="http://www.w3.org/1999/02/22-rdf-syntax-ns#"
   xmlns:svg="http://www.w3.org/2000/svg"
   xmlns="http://www.w3.org/2000/svg"
   xmlns:sodipodi="http://sodipodi.sourceforge.net/DTD/sodipodi-0.dtd"
   xmlns:inkscape="http://www.inkscape.org/namespaces/inkscape"
   width="132.55626mm"
   height="132.55626mm"
   viewBox="0 0 132.55626 132.55626"
   version="1.1"
   id="svg8"
   inkscape:export-filename="C:\Users\lamkoi\connvis.png"
   inkscape:export-xdpi="96"
   inkscape:export-ydpi="96"
   inkscape:version="1.0.2-2 (e86c870879, 2021-01-15)"
   sodipodi:docname="connvis.svg">
  <defs
     id="defs2">
    <filter
       inkscape:collect="always"
       style="color-interpolation-filters:sRGB"
       id="filter942"
       x="-1.2e-06"
       width="1.0000024"
       y="-1.2e-06"
       height="1.0000024">
      <feGaussianBlur
         inkscape:collect="always"
         stdDeviation="6.6145836e-05"
         id="feGaussianBlur944" />
    </filter>
  </defs>
  <sodipodi:namedview
     id="base"
     pagecolor="#ffffff"
     bordercolor="#666666"
     borderopacity="1.0"
     inkscape:pageopacity="0.0"
     inkscape:pageshadow="2"
     inkscape:zoom="0.7"
     inkscape:cx="828.49864"
     inkscape:cy="311.999"
     inkscape:document-units="mm"
     inkscape:current-layer="layer1"
     inkscape:document-rotation="0"
     showgrid="true"
     fit-margin-top="0"
     fit-margin-left="0"
     fit-margin-right="0"
     fit-margin-bottom="0"
     inkscape:window-width="1920"
     inkscape:window-height="1147"
     inkscape:window-x="1912"
     inkscape:window-y="-8"
     inkscape:window-maximized="1">
    <inkscape:grid
       type="xygrid"
       id="grid833"
       originx="-47.492709"
       originy="-42.201041" />
  </sodipodi:namedview>
  <metadata
     id="metadata5">
    <rdf:RDF>
      <cc:Work
         rdf:about="">
        <dc:format>image/svg+xml</dc:format>
        <dc:type
           rdf:resource="http://purl.org/dc/dcmitype/StillImage" />
        <dc:title></dc:title>
      </cc:Work>
    </rdf:RDF>
  </metadata>
  <g
     inkscape:label="Layer 1"
     inkscape:groupmode="layer"
     id="layer1"
     transform="translate(-47.492709,-42.201041)"
     style="filter:url(#filter942)">
    <rect
       style="fill:#004455;stroke:#999999;stroke-width:0.264583;stroke-dasharray:0.264583, 0.264583"
       id="rect893"
       width="132.29167"
       height="132.29167"
       x="47.625"
       y="42.333332" />
    <g
       id="g940"
       transform="translate(0,0.37305538)">
      <rect
         style="fill:#d5f6ff;stroke:#999999;stroke-width:0.264583;stroke-dasharray:0.264583, 0.264583"
         id="rect883"
         width="15.875"
         height="26.458332"
         x="58.208336"
         y="137.5833" />
      <rect
         style="fill:#d5f6ff;stroke:#999999;stroke-width:0.264583;stroke-dasharray:0.264583, 0.264583"
         id="rect885"
         width="15.875"
         height="42.333332"
         x="82.020836"
         y="121.70832" />
      <rect
         style="fill:#d5f6ff;stroke:#999999;stroke-width:0.264583;stroke-dasharray:0.264583, 0.264583"
         id="rect889"
         width="15.875"
         height="92.604164"
         x="153.45833"
         y="71.437508" />
      <rect
         style="fill:#d5f6ff;stroke:#999999;stroke-width:0.264583;stroke-dasharray:0.264583, 0.264583"
         id="rect891"
         width="15.875"
         height="60.854164"
         x="129.64583"
         y="103.1875" />
      <g
         aria-label="?"
         transform="matrix(1.0180399,0,0,0.98227977,0,2.6458334)"
         id="text845"
         style="font-style:normal;font-weight:normal;font-size:153.706px;line-height:1.25;font-family:sans-serif;letter-spacing:0px;word-spacing:0px;fill:#ff5555;fill-opacity:1;stroke:none;stroke-width:2.40167">
        <path
           d="m 149.47258,78.80313 c 0,4.903381 -0.87561,9.2814 -2.62682,13.134057 -1.75121,3.802623 -4.05279,7.17995 -6.90476,10.131983 -2.80193,2.85197 -6.02915,5.52881 -9.68167,8.03054 -3.65252,2.50173 -6.60487,4.7187 -10.7077,7.07032 v 17.50817 h -15.59369 v -22.8953 c 3.25225,-1.85127 7.75077,-4.28775 11.69527,-6.73391 3.80262,-2.20152 6.95084,-4.18065 9.35249,-6.432197 2.90201,-2.601794 5.15356,-5.27864 6.75466,-8.030537 1.60111,-2.801933 2.40166,-6.354382 2.40166,-10.657349 0,-5.653899 -1.92633,-9.856798 -5.77899,-12.608695 -3.80262,-2.801932 -8.73102,-4.202898 -14.78519,-4.202898 -5.40373,0 -10.53226,0.850586 -15.385612,2.551759 -4.803313,1.701173 -8.605935,3.427364 -11.407867,5.178571 H 86.053843 V 55.537086 c 3.502415,-1.350931 7.930469,-2.551759 13.284161,-3.602484 5.403726,-1.100759 10.507246,-1.651139 15.310556,-1.651139 10.75742,0 19.23827,2.626812 25.44255,7.880435 6.25431,5.203588 9.38147,12.083332 9.38147,20.639232 z m -29.92095,85.50427 h -15.59369 v -16.16139 h 15.59369 z"
           style="font-size:153.706px;fill:#ff5555;stroke-width:2.40167"
           id="path915"
           sodipodi:nodetypes="sccscccccccscscccccscsccccc" />
      </g>
    </g>
  </g>
</svg>
